Patient4_TMGait_0pt6_01_right_03_EMG.mot
version=1
nRows=26
nColumns=33
inDegrees=no
endheader
time	1LAddLong	2LGlutMax	3LGlutMed	4LIliopsoas	5LSemiMemb	6LBicFemLong	7LRecFem	8LVastMed	9LVastLat	10LGasMed	11LTibAnt	12lTibPost	13LPeroneusLong	14LSol	15LExtDigLong	16LFlexDigLong	17RAddLong	18RGlutMax	19RGlutMed	20RIliopsoas	21RSemiMemb	22RBicFemLong	23RRecFem	24RVastMed	25RVastLat	26RGasMed	27RTibAnt	28RTibPost	29RPeroneusLong	30RSol	31RExtDigLong	32RFlexDigLong
4.255	0.010529	-0.13855	-0.10666	0.038605	0.015869	0.002747	0.10056	0.003662	0.021973	0.26764	-0.054779	0.001831	-0.076294	-0.10056	-0.080872	-0.044708	-0.009613	-0.11643	0.20721	0.04425	0.00885	-0.031891	-0.003967	-0.094147	-0.010223	-0.010529	0.052795	-0.002594	0.002899	-0.071564	-0.005951	0.001221
4.256	0.007629	-0.10986	0.004272	0.005798	0.002899	-0.015411	0.13489	0.006256	0.072021	-0.006256	-0.029602	0.00351	0.088501	-0.086823	-0.051422	0.01358	-0.027466	-0.073242	0.41184	0.024109	0.01358	0.007477	-0.029755	-0.086517	-0.011902	-0.010376	-0.15549	-0.001526	0.006409	-0.0177	-0.001678	0.000153
4.257	0.000458	-0.096741	0.050659	0.00885	-0.026703	-0.009308	0.14328	0.00946	0.14923	-0.16357	-0.066376	0.021515	0.075378	0.067444	-0.019226	0.00885	-0.037537	-0.10178	0.39993	-0.018921	0.14969	0.1503	-0.054016	-0.080261	0.001373	-0.015259	-0.32852	-0.00946	0.071259	0.066071	-0.005798	-0.000916
4.258	0.009308	-0.11505	0.017548	0.009766	-0.029602	-0.037537	0.1059	0.006409	0.13947	-0.15106	-0.023956	0.013428	-0.046234	-0.090485	0.004272	-0.041046	-0.022888	-0.12222	0.31128	0.006409	0.18677	0.19073	-0.017853	-0.11337	-0.001831	-0.023651	-0.10147	0.004272	0.025177	-0.021057	-0.00351	-0.002136
4.259	0.009613	-0.10605	0.083923	-0.002441	-0.048828	-0.16037	0.004883	0.006104	0.14099	-0.11932	0.050049	0.015106	0.1268	-0.18951	0.011444	-0.05661	-0.03067	-0.057831	0.22278	-0.032654	0.023651	0.13596	-0.03418	-0.097809	0.001221	-0.018921	0.097504	-0.005798	-0.096893	-0.061951	-0.005646	-0.007629
4.26	0.014496	-0.055084	0.036163	-0.013275	0.001678	-0.20798	-0.013275	0.006104	0.045471	-0.09491	0.070953	-0.009003	0.13016	-0.22064	0.045471	-0.021667	-0.003357	-0.02594	-0.10025	0.004272	-0.059509	0.029755	-0.02182	-0.080109	0.002441	-0.022278	0.32532	-0.002747	-0.084839	-0.082855	-0.004578	-0.015869
4.261	0.014801	-0.06958	0.050659	-0.007477	0.035248	-0.2385	0.062866	0.005951	-0.30395	-0.016479	-0.027008	-0.009003	-0.16159	-0.17944	0.056305	0.000763	-0.010223	-0.042877	-0.18631	0.03418	-0.071259	-0.030975	-0.039978	-0.035858	-0.007782	-0.019073	0.1973	-0.004425	0.024414	-0.070648	-0.005951	-0.018921
4.262	0.004883	-0.074463	0.054016	0.004425	0.030975	-0.17303	0.10773	0.002136	-0.35736	0.080566	-0.020752	0.024261	-0.20554	-0.1445	0.032654	0.003204	-0.009155	-0.060577	0.04715	-0.037079	-0.10315	0.005035	-0.018311	-0.045471	-0.000305	-0.012054	-0.16007	-0.006256	0.25772	-0.13382	-0.00412	-0.016785
4.263	0.007019	-0.10956	0.0177	0.011749	0.044098	0.059509	0.1236	0.006104	-0.22888	0.13336	0.024109	0.037689	-0.15488	0.014343	0.028839	-0.004578	-0.005035	-0.024261	0.29327	-0.049133	-0.018005	0.027618	-0.058289	-0.093536	-0.008392	-0.005188	-0.49728	-0.00412	0.56305	-0.18265	-0.003662	-0.015564
4.264	0.006866	-0.088806	0.034637	0.001373	0.00473	0.2356	0.15869	-0.00061	-0.082245	0.033569	0.020142	0.005493	-0.25269	0.059204	0.019226	-0.009003	-0.003662	-0.056152	0.17273	-0.04364	0.037994	0.011444	-0.069122	-0.039978	0.018311	-0.014343	-0.56015	-0.011749	0.35523	-0.070801	-0.002899	-0.020599
4.265	0.005646	-0.074005	-0.005035	0.002441	-0.046387	0.29114	0.1445	0.010223	-0.018311	0.01709	0.006714	-0.020905	0.043488	-0.001831	0.041656	-0.001984	-0.00412	-0.046997	-0.007172	-0.016937	-0.057831	-0.029907	-0.13473	-0.03952	0.007782	-0.00885	-0.68573	-0.006866	0.2179	-0.067444	0.000916	-0.017242
4.266	0.007782	-0.080719	-0.060883	0.005188	-0.040894	0.20523	0.12222	0.006866	0.015411	-0.001678	0.018463	-0.012054	0.080109	-0.011139	0.036926	-0.006256	0.03418	-0.04776	-0.14236	0.029297	-0.046387	-0.00351	-0.12955	-0.073547	0.012512	0.000305	-0.30426	-0.004272	-0.19455	-0.098877	-0.000458	-0.014801
4.267	0.002899	-0.014191	0.059814	0.001831	-0.0177	0.19577	0.14267	0.009003	0.009766	-0.06958	0.007324	-0.024567	0.12756	0.059967	0.074768	-0.001526	0.039978	-0.076447	0.12039	-0.061035	-0.048065	0.010376	-0.085602	-0.067444	0.032806	0.011902	0.036011	-0.009308	-0.64117	-0.040741	0	-0.008392
4.268	0.00061	-0.025482	0.053864	0.005798	0.041962	0.22751	0.14069	0.012054	0.003662	-0.081787	0.01358	-0.010376	0.080261	0.024719	0.081787	0.003357	0.05127	-0.050507	0.1622	-0.10666	-0.047913	-0.003052	-0.065155	-0.094299	0.023193	0.016479	0.40543	-0.004883	0.15533	-0.07782	-0.002136	-0.011749
4.269	0.01236	-0.030823	-0.002899	-0.00351	0.077972	0.22507	0.12192	0.000763	0.046692	-0.08606	0.029602	0.020294	-0.28809	-0.000458	0.042725	-0.022278	0.036621	-0.006256	0.12772	-0.10498	-0.043945	-0.02533	-0.031281	-0.070343	0.022736	0.027771	0.41351	-0.004425	0.29221	-0.019379	0.000763	-0.01297
4.27	0.017242	-0.034332	0.013275	0.00351	0.052032	0.024719	0.10513	0.007324	0.050049	-0.029602	0.029602	0.024872	-0.056458	0.12848	-0.006866	-0.022278	0.036011	-0.039978	0.087891	0.021973	-0.047302	-0.020294	-0.014038	-0.033264	0.029602	0.047302	-0.018311	-0.007782	0.14435	-0.006561	-0.00061	-0.00824
4.271	0.003967	-0.053253	-0.020752	-0.007019	-0.035706	-0.075531	0.11978	-0.000458	0.043945	0.019989	-0.0177	-0.018768	-0.003357	0.233	-0.013428	-0.0177	0.020905	-0.066681	0.14145	0.13123	0.004272	-0.005188	0.054169	-0.006561	0.031433	0.067596	0.12207	-0.008087	0.033569	-0.039368	-0.000458	-0.008545
4.272	-0.000305	-0.019226	-0.056	0.000458	-0.088196	-0.12756	0.12054	0.001221	0.041351	0.075531	-0.021667	-0.023041	-0.054016	0.25269	-0.011139	0.003815	-0.003204	-0.07782	0.075989	0.1236	0.001068	-0.010223	0.06897	0.009003	0.052032	0.070953	0.25131	-0.010681	-0.24445	0.018768	-0.003967	-0.004883
4.273	0.009613	-0.017395	-0.034485	0.00351	-0.065613	-0.17319	0.13092	0.006104	0.038147	0.041809	-0.018311	-0.009918	-0.043793	0.31784	-0.00061	0.001678	0.010376	-0.10391	-0.014343	-0.000458	-0.092468	0.001068	0.001678	-0.010529	0.031586	0.072937	0.21088	-0.009155	-0.24918	0.12451	-0.00061	-0.013123
4.274	-0.000153	-0.004883	-0.030975	-0.001526	0.18585	-0.26093	0.15213	0.004578	0.04303	0.021973	-0.015869	-0.007324	0.16998	0.16647	0.040283	0.006104	0.0383	-0.10712	0.003967	-0.11108	-0.14008	-0.014191	0.005798	-0.046539	0.024261	0.080261	0.13519	-0.006104	-0.45288	0.082092	-0.009613	-0.014191
4.275	0.007629	-0.000153	-0.006256	-0.008545	0.14145	-0.15869	0.15701	0.00824	0.037994	0.16724	-0.00824	-0.001526	-0.16892	-0.29739	0.005646	-0.011444	0.019684	-0.081329	-0.006866	-0.066986	-0.004578	-0.014343	0.028229	-0.053406	0.038147	0.072937	0.23163	-0.011292	-0.066986	0.13519	-0.003204	-0.017853
4.276	0.008087	-0.012512	-0.010223	-0.011139	-0.039978	-0.06897	0.15717	0.005493	0.043182	0.21255	-0.005493	-0.024719	0.11887	-0.33905	-0.004578	-0.001221	-0.003052	-0.097656	-0.029449	0.033722	0.062866	-0.023804	0.009613	-0.038605	0.035095	0.071106	0.32501	-0.010223	0.062866	0.15274	-0.005951	-0.010834
4.277	0.007477	-0.032043	0.06958	0.001068	-0.060272	0.061493	0.13565	0.001526	0.049286	-0.053864	-0.006409	-0.091095	0.21423	-0.16235	0.048828	-0.058289	-0.014038	-0.086212	-0.086365	0.12726	0.052338	-0.010681	0.006409	-0.066223	0.043182	0.066681	0.34454	-0.008545	-0.33264	0.12573	-0.009766	-0.009613
4.278	0.009155	-0.028534	0.033417	0.011139	0.032501	0.17563	0.14801	0.001373	0.064392	-0.25238	-0.042114	-0.20752	-0.080109	-0.14557	0.049744	-1.2271	-0.003204	-0.089874	-0.031433	-0.06546	-0.011902	-0.065765	0.012054	-0.049744	0.022736	0.071259	0.11749	-0.00885	-0.19699	0.051422	-0.005798	-0.00885
4.279	0.007477	-0.004883	-0.021973	0.008392	0.022583	0.20233	0.15717	0.002289	0.041199	-0.27435	0.002747	0.1236	-0.065308	0.003815	0.045776	0.94544	0.002747	-0.075684	0.11414	-0.37476	0.01709	-0.090332	-0.02243	-0.10651	0.03067	0.063324	-0.16724	-0.00824	0.31281	-0.02533	-0.00412	-0.00946
4.28	0.006866	-0.004425	-0.053101	-0.004883	0.021973	0.072021	0.15137	-0.004425	0.046387	0.10971	0.009918	0.48492	-0.16647	0.1445	0.03067	-0.014343	-0.007324	-0.089111	0.004883	-0.42221	0.015411	-0.076599	-0.050354	-0.076447	0.0177	0.055847	-0.13947	-0.009918	0.09613	-0.065613	-0.003662	-0.002747
